{
  "source": "C:\\Users\\Peter\\Desktop\\stuff\\MIUN\\quantitative_research\\video_compression\\videos\\BVI-HD\\BVI-HD_CDVL_videos\\ORIG\\Music_1920x1080_30fps.mp4",
  "output": "C:\\Users\\Peter\\Desktop\\stuff\\MIUN\\quantitative_research\\video_compression\\compressed_videos\\BVI-HD\\av1\\4\\Music_1920x1080_30fps_av1.mkv",
  "codec": "av1",
  "ok": "Input #0, mov,mp4,m4a,3gp,3g2,mj2, from 'C:\\Users\\Peter\\Desktop\\stuff\\MIUN\\quantitative_research\\video_compression\\videos\\BVI-HD\\BVI-HD_CDVL_videos\\ORIG\\Music_1920x1080_30fps.mp4':\n  Metadata:\n    major_brand     : isom\n    minor_version   : 512\n    compatible_brands: isomiso2avc1mp41\n    encoder         : Lavf54.28.101\n  Duration: 00:00:05.00, start: 0.000000, bitrate: 192710 kb/s\n  Stream #0:0[0x1](und): Video: h264 (High 4:4:4 Predictive) (avc1 / 0x31637661), yuv420p(progressive), 1920x1080, 192707 kb/s, 30 fps, 30 tbr, 30 tbn (default)\n    Metadata:\n      handler_name    : VideoHandler\n      vendor_id       : [0][0][0][0]\n[out#0/matroska @ 000002527ad28f40] Codec AVOption b:a (set bitrate (in bits/s)) has not been used for any stream. The most likely reason is either wrong type (e.g. a video option with no video streams) or that it is a private option of some decoder which was not actually used for any stream.\nStream mapping:\n  Stream #0:0 -> #0:0 (h264 (native) -> av1 (libsvtav1))\nPress [q] to stop, [?] for help\nSvt[info]: -------------------------------------------\nSvt[info]: SVT [version]:\tSVT-AV1 Encoder Lib v3.1.0-19-g6ecfe8ec\nSvt[info]: SVT [build]  :\tGCC 15.2.0\t 64 bit\nSvt[info]: LIB Build date: Aug 17 2025 11:37:13\nSvt[info]: -------------------------------------------\nSvt[info]: Level of Parallelism: 5\nSvt[info]: Number of PPCS 93\nSvt[info]: [asm level on system : up to avx2]\nSvt[info]: [asm level selected : up to avx2]\nSvt[info]: -------------------------------------------\nSvt[info]: SVT [config]: main profile\ttier (auto)\tlevel (auto)\nSvt[info]: SVT [config]: width / height / fps numerator / fps denominator \t\t: 1920 / 1080 / 30 / 1\nSvt[info]: SVT [config]: bit-depth / color format \t\t\t\t\t: 8 / YUV420\nSvt[info]: SVT [config]: preset / tune / pred struct \t\t\t\t\t: 4 / PSNR / random access\nSvt[info]: SVT [config]: gop size / mini-gop size / key-frame type \t\t\t: 161 / 16 / key frame\nSvt[info]: SVT [config]: BRC mode / target bitrate (kbps)\t\t\t\t: VBR / 4000 \nSvt[info]: SVT [config]: AQ mode / Variance Boost \t\t\t\t\t: 2 / 0\nSvt[info]: SVT [config]: sharpness / luminance-based QP bias \t\t\t\t: 0 / 0\nSvt[info]: SVT [config]: QP scale compress strength \t\t\t\t\t: 0\nSvt[info]: -------------------------------------------\nOutput #0, matroska, to 'C:\\Users\\Peter\\Desktop\\stuff\\MIUN\\quantitative_research\\video_compression\\compressed_videos\\BVI-HD\\av1\\4\\Music_1920x1080_30fps_av1.mkv':\n  Metadata:\n    major_brand     : isom\n    minor_version   : 512\n    compatible_brands: isomiso2avc1mp41\n    encoder         : Lavf62.3.100\n  Stream #0:0(und): Video: av1 (AV01 / 0x31305641), yuv420p(tv, progressive), 1920x1080, q=2-31, 4000 kb/s, 30 fps, 1k tbn (default)\n    Metadata:\n      encoder         : Lavc62.11.100 libsvtav1\n      handler_name    : VideoHandler\n      vendor_id       : [0][0][0][0]\n    Side data:\n      cpb: bitrate max/min/avg: 0/0/4000000 buffer size: 4000000 vbv_delay: N/A\nframe=    0 fps=0.0 q=0.0 size=       0KiB time=N/A bitrate=N/A speed=N/A elapsed=0:00:01.03    \nframe=    0 fps=0.0 q=0.0 size=       0KiB time=N/A bitrate=N/A speed=N/A elapsed=0:00:01.55    \nframe=    0 fps=0.0 q=0.0 size=       0KiB time=N/A bitrate=N/A speed=N/A elapsed=0:00:02.07    \nframe=    0 fps=0.0 q=0.0 size=       0KiB time=N/A bitrate=N/A speed=N/A elapsed=0:00:02.58    \nframe=    1 fps=0.3 q=16.0 size=       1KiB time=00:00:00.00 bitrate=N/A speed=   0x elapsed=0:00:03.11    \nframe=    5 fps=1.4 q=28.0 size=       1KiB time=00:00:00.13 bitrate=  42.8kbits/s speed=0.0367x elapsed=0:00:03.62    \nframe=    7 fps=1.7 q=28.0 size=       1KiB time=00:00:00.20 bitrate=  28.5kbits/s speed=0.0482x elapsed=0:00:04.14    \nframe=   11 fps=2.4 q=25.0 size=       1KiB time=00:00:00.33 bitrate=  17.1kbits/s speed=0.0715x elapsed=0:00:04.66    \nframe=   14 fps=2.7 q=25.0 size=       1KiB time=00:00:00.43 bitrate=  13.2kbits/s speed=0.0837x elapsed=0:00:05.17    \nframe=   19 fps=3.3 q=26.0 size=       1KiB time=00:00:00.60 bitrate=   9.5kbits/s speed=0.105x elapsed=0:00:05.69    \nframe=   22 fps=3.5 q=21.0 size=       1KiB time=00:00:00.70 bitrate=   8.1kbits/s speed=0.113x elapsed=0:00:06.21    \nframe=   24 fps=3.6 q=21.0 size=       1KiB time=00:00:00.76 bitrate=   7.4kbits/s speed=0.114x elapsed=0:00:06.73    \nframe=   28 fps=3.8 q=20.0 size=       1KiB time=00:00:00.90 bitrate=   6.3kbits/s speed=0.124x elapsed=0:00:07.27    \nframe=   32 fps=4.1 q=24.0 size=       1KiB time=00:00:01.03 bitrate=   5.5kbits/s speed=0.132x elapsed=0:00:07.80    \nframe=   35 fps=4.2 q=26.0 size=       1KiB time=00:00:01.13 bitrate=   5.0kbits/s speed=0.136x elapsed=0:00:08.33    \nframe=   38 fps=4.3 q=29.0 size=       1KiB time=00:00:01.23 bitrate=   4.6kbits/s speed=0.139x elapsed=0:00:08.84    \nframe=   40 fps=4.3 q=30.0 size=       1KiB time=00:00:01.30 bitrate=   4.4kbits/s speed=0.139x elapsed=0:00:09.36    \nframe=   45 fps=4.5 q=22.0 size=       1KiB time=00:00:01.43 bitrate=   4.0kbits/s speed=0.145x elapsed=0:00:09.90    \nframe=   49 fps=4.7 q=9.0 size=       1KiB time=00:00:01.60 bitrate=   3.6kbits/s speed=0.153x elapsed=0:00:10.44    \nframe=   55 fps=5.0 q=26.0 size=       1KiB time=00:00:01.80 bitrate=   3.2kbits/s speed=0.164x elapsed=0:00:10.97    \nframe=   57 fps=5.0 q=15.0 size=       1KiB time=00:00:01.86 bitrate=   3.1kbits/s speed=0.163x elapsed=0:00:11.48    \nframe=   61 fps=5.1 q=23.0 size=       1KiB time=00:00:02.00 bitrate=   2.9kbits/s speed=0.167x elapsed=0:00:11.99    \nframe=   63 fps=5.0 q=25.0 size=       1KiB time=00:00:02.06 bitrate=   2.8kbits/s speed=0.165x elapsed=0:00:12.52    \nframe=   69 fps=5.3 q=24.0 size=       1KiB time=00:00:02.26 bitrate=   2.5kbits/s speed=0.174x elapsed=0:00:13.05    \nframe=   73 fps=5.4 q=16.0 size=       1KiB time=00:00:02.40 bitrate=   2.4kbits/s speed=0.177x elapsed=0:00:13.57    \nframe=   75 fps=5.3 q=27.0 size=       1KiB time=00:00:02.46 bitrate=   2.3kbits/s speed=0.175x elapsed=0:00:14.09    \nframe=   79 fps=5.4 q=26.0 size=       1KiB time=00:00:02.60 bitrate=   2.2kbits/s speed=0.178x elapsed=0:00:14.61    \nframe=   85 fps=5.6 q=26.0 size=       1KiB time=00:00:02.80 bitrate=   2.0kbits/s speed=0.185x elapsed=0:00:15.12    \nframe=   89 fps=5.7 q=20.0 size=       1KiB time=00:00:02.93 bitrate=   1.9kbits/s speed=0.188x elapsed=0:00:15.64    \nframe=   93 fps=5.8 q=24.0 size=       1KiB time=00:00:03.06 bitrate=   1.9kbits/s speed=0.19x elapsed=0:00:16.16    \nframe=   97 fps=5.8 q=11.0 size=       1KiB time=00:00:03.20 bitrate=   1.8kbits/s speed=0.192x elapsed=0:00:16.67    \nframe=  101 fps=5.9 q=27.0 size=       1KiB time=00:00:03.33 bitrate=   1.7kbits/s speed=0.194x elapsed=0:00:17.19    \nframe=  105 fps=5.9 q=23.0 size=       1KiB time=00:00:03.46 bitrate=   1.6kbits/s speed=0.196x elapsed=0:00:17.70    \nframe=  107 fps=5.9 q=28.0 size=       1KiB time=00:00:03.53 bitrate=   1.6kbits/s speed=0.194x elapsed=0:00:18.23    \nframe=  111 fps=5.9 q=14.0 size=       1KiB time=00:00:03.66 bitrate=   1.6kbits/s speed=0.196x elapsed=0:00:18.75    \nframe=  117 fps=6.1 q=26.0 size=       1KiB time=00:00:03.86 bitrate=   1.5kbits/s speed=0.201x elapsed=0:00:19.27    \nframe=  121 fps=6.1 q=23.0 size=       1KiB time=00:00:04.00 bitrate=   1.4kbits/s speed=0.202x elapsed=0:00:19.77    \nframe=  127 fps=6.3 q=32.0 size=       1KiB time=00:00:04.20 bitrate=   1.4kbits/s speed=0.207x elapsed=0:00:20.29    \nframe=  133 fps=6.4 q=33.0 size=       1KiB time=00:00:04.40 bitrate=   1.3kbits/s speed=0.211x elapsed=0:00:20.80    \nframe=  139 fps=6.5 q=33.0 size=       1KiB time=00:00:04.60 bitrate=   1.2kbits/s speed=0.216x elapsed=0:00:21.33    \n[out#0/matroska @ 000002527ad28f40] video:2263KiB audio:0KiB subtitle:0KiB other streams:0KiB global headers:0KiB muxing overhead: 0.063440%\nframe=  150 fps=6.9 q=33.0 Lsize=    2264KiB time=00:00:04.96 bitrate=3734.7kbits/s speed=0.229x elapsed=0:00:21.70    \n",
  "seconds": 22.424808025360107,
  "probe_out": {}
}